<svg width="462" height="153" viewBox="0 0 462 153" fill="none" xmlns="http://www.w3.org/2000/svg">
<g clip-path="url(#clip0_457_4768)">
<path d="M220.237 101.606C219.123 101.432 218.013 101.208 216.89 101.092C215.695 100.968 215.122 100.538 215.122 99.1723C215.107 88.9997 214.971 78.8232 214.983 68.6506C214.983 67.246 214.708 66.6927 213.257 66.6463C207.979 66.4722 202.705 65.9962 197.435 66.0117C174.242 66.0852 151.049 66.2748 127.856 66.4722C124.126 66.5031 120.396 66.832 116.662 66.9752C115.606 67.0177 115.246 67.4666 115.211 68.4997C115.079 72.5548 114.863 76.6061 114.704 80.6573C114.139 95.0708 113.601 109.484 113.001 123.894C112.943 125.267 113.268 125.879 114.735 125.948C126.637 126.509 138.532 127.206 150.438 127.678C154.493 127.837 153.808 128.146 153.812 124.347C153.823 107.6 153.785 90.857 153.785 74.1103C153.785 73.0888 153.858 72.0479 154.079 71.0535C154.33 69.9275 155.182 69.6412 156.161 70.1636C157.453 70.8562 158.324 71.7577 158.289 73.4796C157.96 90.412 157.704 107.348 157.414 124.281C157.399 125.113 157.387 125.991 157.132 126.765C156.942 127.33 156.42 128.073 155.924 128.181C154.775 128.433 154.721 129.121 154.733 130.011C154.802 135.548 154.849 141.089 154.93 146.626C154.953 148.271 155 148.147 153.332 148.046C149.602 147.83 145.868 147.648 142.134 147.629C132.855 147.578 123.576 147.59 114.302 147.66C112.719 147.671 111.136 148.29 109.554 148.275C106.098 148.244 102.647 147.988 99.1916 147.822C98.4216 147.783 97.6477 147.718 96.8777 147.71C87.8582 147.632 78.8387 147.59 69.8191 147.482C67.3737 147.451 64.9244 147.3 62.4905 147.075C61.2562 146.963 59.8748 147.083 58.9578 145.868C58.8185 145.686 58.3774 145.675 58.0756 145.678C47.7095 145.891 37.3473 146.178 26.9812 146.317C18.6698 146.429 10.3583 146.371 2.0469 146.356C1.36589 146.356 0.684881 146.077 0 145.926C0.661664 145.818 1.31946 145.62 1.98112 145.617C18.4105 145.504 34.8399 145.423 51.2654 145.303C53.324 145.288 55.3747 145.024 57.4332 144.963C58.7101 144.924 59.3021 144.378 59.7433 143.152C60.5171 140.985 61.4613 138.853 62.5795 136.845C63.2141 135.703 64.1853 134.577 65.2881 133.908C66.7584 133.018 67.4859 131.822 67.9386 130.298C68.3565 128.878 68.7125 127.434 69.2426 126.057C70.148 123.696 71.305 122.984 73.7349 123.631C76.0837 124.258 78.3473 125.202 80.6224 126.076C82.77 126.9 82.7274 126.924 83.8766 124.935C84.6776 123.546 85.4553 122.118 86.4497 120.864C87.5757 119.448 88.5547 119.483 89.8432 120.744C91.4529 122.319 93.078 123.886 94.6141 125.531C95.419 126.393 95.6318 126.239 95.8446 125.171C96.0729 124.041 96.4057 122.923 96.8313 121.855C96.9899 121.46 97.5471 120.984 97.9147 120.988C98.2823 120.988 98.8434 121.487 98.9749 121.878C99.4199 123.217 99.803 124.59 100.039 125.979C100.662 129.609 101.037 133.254 100.306 136.918C100.217 137.359 100.132 137.804 99.9848 138.226C99.1955 140.47 97.6671 140.985 95.8523 139.476C94.3201 138.207 92.9348 136.756 91.4761 135.394C90.2998 134.295 89.1699 133.138 87.9201 132.132C86.4497 130.944 85.7494 131.226 85.5791 133.064C85.4011 134.983 85.4127 136.922 85.2696 138.845C85.2309 139.371 85.0568 140.13 84.7008 140.319C84.3757 140.49 83.6754 140.107 83.2149 139.84C81.2183 138.679 79.2836 137.394 77.2406 136.322C76.5867 135.978 75.2556 135.815 74.9577 136.171C74.4933 136.725 74.4701 137.824 74.5901 138.644C74.7371 139.642 75.2517 140.582 75.5574 141.565C76.014 143.028 75.5574 143.721 74.0445 143.581C72.845 143.473 71.6532 143.105 70.504 142.722C69.409 142.355 68.372 141.821 67.3118 141.356C66.0891 140.822 65.2687 140.996 64.4175 142.25C63.6707 143.353 62.359 144.069 61.291 144.951C60.9815 145.206 60.6526 145.442 60.3353 145.686C60.7299 145.837 61.113 146.096 61.5154 146.123C64.7889 146.359 68.0663 146.688 71.3437 146.731C80.3632 146.847 89.3827 146.808 98.4023 146.909C99.8571 146.924 100.515 146.537 100.569 145.024C100.751 140.072 101.161 135.127 101.215 130.174C101.347 118.392 101.413 106.605 101.339 94.8193C101.266 83.037 100.983 71.2547 100.805 59.4724C100.79 58.4664 100.848 57.5339 99.4122 57.4371C99.1026 57.4178 98.5377 56.613 98.6073 56.2763C98.8859 54.895 99.3309 53.5445 99.7914 52.2096C99.8958 51.9078 100.321 51.7143 100.596 51.4706C100.852 51.7995 101.281 52.1013 101.328 52.4573C101.463 53.4749 101.475 54.5119 101.482 55.5411C101.49 56.3847 101.78 56.8606 102.705 56.8877C104.957 56.9457 107.213 57.0309 109.465 57.1469C110.471 57.1973 110.846 56.7677 110.85 55.7927C110.854 53.5407 110.877 51.2848 110.966 49.0329C111.005 48.0423 110.676 47.667 109.67 47.6205C106.454 47.4696 103.239 47.2762 100.027 47.0246C98.1043 46.8776 96.1812 46.6687 94.2775 46.3591C91.8359 45.9606 91.716 45.8754 91.9133 43.341C92.2654 38.8525 92.7684 34.3756 93.2057 29.891C93.2947 28.9972 93.0548 27.6468 93.5307 27.314C94.1885 26.8536 95.3841 27.1631 96.3476 27.1322C97.4426 27.0973 98.5377 27.0432 99.6289 27.0045C100.422 26.9774 100.79 26.5827 100.751 25.7817C100.689 24.4971 100.596 23.2086 100.604 21.9201C100.639 16.4488 100.619 10.9775 100.794 5.51391C100.898 2.2675 101.409 1.7877 104.616 1.31563C106.714 1.00995 108.85 0.982867 110.962 0.77392C112.32 0.638492 112.495 1.23825 112.487 2.47645C112.452 8.0058 112.479 13.539 112.649 19.0684C112.727 21.5486 112.978 21.6183 115.443 21.626C117.505 21.6299 119.568 21.6376 121.63 21.626C123.673 21.6144 123.665 21.6028 123.654 19.6178C123.627 14.5296 123.569 9.44134 123.596 4.35697C123.619 -0.0812131 123.665 -0.108299 128.1 0.0813011C132.283 0.263162 136.462 0.510803 140.644 0.727488C141.988 0.797137 142.686 1.48718 142.738 2.79761C142.912 7.42926 143.078 12.0648 143.248 16.6964C143.272 17.2768 143.334 17.8534 143.334 18.4338C143.334 19.5404 143.871 19.8035 144.924 19.7378C148.263 19.5288 151.61 19.3508 154.957 19.3083C156.416 19.2889 156.803 18.7201 156.861 17.3581C157.078 12.4711 157.403 7.5879 157.697 2.70474C157.731 2.1282 157.689 1.49749 157.913 0.994475C158.095 0.584321 158.618 0.050346 159.001 0.0426072C162.545 -0.0193029 166.089 0.0193909 169.634 4.40399e-05C170.926 -0.00769472 170.818 1.00608 170.914 1.76448C171.371 5.33979 171.793 8.91897 172.172 12.502C172.412 14.7385 172.656 16.9866 172.702 19.2347C172.733 20.6006 173.178 21.0147 174.513 20.8831C179.385 20.4033 184.26 20.0009 189.135 19.5559C198.24 18.7279 207.345 17.8959 216.449 17.0602C227.222 16.0735 237.994 15.0829 248.766 14.0846C257.488 13.2759 266.206 12.4711 274.923 11.6391C286.524 10.5325 298.124 9.41812 309.725 8.28052C319.143 7.35574 328.565 6.43483 337.975 5.4404C346.298 4.56205 354.61 3.58309 362.925 2.65444C364.07 2.52675 365.068 2.24429 365.421 0.948043C365.475 0.750704 365.753 0.611406 365.927 0.445023C366.036 0.700402 366.241 0.955781 366.241 1.20729C366.253 12.5407 366.268 23.8741 366.21 35.2076C366.198 37.1925 365.869 39.1775 365.66 41.1625C365.513 42.571 364.832 43.3758 363.285 43.3681C361.741 43.3565 360.197 43.5654 358.653 43.5383C357.426 43.5151 357.024 44.0297 357.183 45.1635C357.21 45.3531 357.198 45.5504 357.206 45.7439C357.299 48.1777 357.299 48.2706 359.678 48.3131C361.176 48.3402 361.126 49.2689 361.141 50.2478C361.203 54.3687 361.273 58.4896 361.296 62.6105C361.389 79.806 361.509 96.9977 361.532 114.193C361.54 119.278 361.257 124.362 361.129 129.45C361.118 129.98 361.257 130.518 361.323 131.052C361.656 130.696 361.992 130.34 362.325 129.98C362.368 129.934 362.406 129.88 362.445 129.829C365.068 126.444 367.622 126.56 369.878 130.166C370.675 131.439 370.582 131.373 371.511 130.124C372.614 128.638 373.732 127.094 375.133 125.914C377.23 124.145 379.261 124.726 380.426 127.229C380.852 128.15 381.092 129.176 381.301 130.174C381.49 131.068 381.804 131.083 382.43 130.549C383.409 129.717 384.373 128.847 385.429 128.119C387.488 126.699 388.857 126.73 390.564 128.587C392.429 130.619 394.085 132.844 395.733 135.061C396.441 136.013 397.173 136.752 398.31 137.228C400.779 138.261 403.012 139.685 404.323 142.142C404.989 143.388 405.612 144.699 404.71 146.154C404.645 146.259 405.012 146.839 405.229 146.874C405.856 146.971 406.51 146.905 407.156 146.901C424.421 146.828 441.69 146.746 458.955 146.7C459.706 146.7 460.456 146.986 461.207 147.141C460.429 147.265 459.652 147.489 458.874 147.493C441.477 147.586 424.08 147.733 406.688 147.663C402.478 147.648 398.601 149.01 394.553 149.614C383.878 151.208 373.152 151.734 362.379 151.123C359.427 150.956 356.482 150.593 353.549 150.198C352.876 150.109 351.255 150.387 352.176 148.654C352.187 148.631 351.773 148.248 351.557 148.252C348.465 148.279 345.373 148.321 342.282 148.418C341.906 148.43 341.303 148.708 341.21 148.991C340.769 150.387 339.627 150.67 338.466 150.705C334.802 150.825 331.099 151.192 327.477 150.825C313.331 149.389 299.161 150.055 284.999 150.059C276.429 150.059 267.862 150.124 259.295 150.237C258.339 150.248 257.279 150.573 256.463 151.072C252.779 153.336 249.761 153.301 246.22 150.902C245.636 150.504 244.812 150.275 244.096 150.275C231.919 150.306 219.742 150.395 207.565 150.449C193.779 150.511 179.992 150.55 166.205 150.596C165.946 150.596 165.679 150.631 165.435 150.565C165.223 150.507 165.045 150.333 164.851 150.213C165.033 150.07 165.203 149.834 165.404 149.803C165.973 149.71 166.554 149.691 167.134 149.652C169.382 149.501 171.63 149.362 173.878 149.196C174.691 149.138 175.449 148.936 175.461 147.896C175.469 146.715 174.528 147.071 173.913 147.006C169.371 146.518 164.828 146.077 160.285 145.589C158.471 145.396 157.817 144.746 158.076 142.923C158.327 141.163 158.85 139.414 159.48 137.746C159.693 137.177 160.579 136.539 161.183 136.508C162.603 136.438 162.916 135.572 163.361 134.5C164.867 130.882 166.445 127.295 168.063 123.727C169.27 121.065 171.452 119.413 174.072 118.279C177.783 116.674 181.718 115.853 185.696 115.664C190.35 115.439 194.367 114.019 197.78 110.869C198.109 110.564 198.507 110.332 198.84 110.03C204.102 105.232 210.374 102.914 217.397 102.396C218.345 102.326 219.282 102.129 220.222 101.989C220.226 101.862 220.23 101.734 220.234 101.602L220.237 101.606ZM297.923 48.6382C297.923 48.5647 297.923 48.4873 297.923 48.4138C312.739 48.4138 327.555 48.4176 342.371 48.4138C346.557 48.4138 350.744 48.3557 354.931 48.3789C355.972 48.3828 356.436 48.1003 356.409 46.9627C356.304 42.8612 356.56 43.666 353.12 43.6583C331.672 43.608 310.224 43.6273 288.776 43.4958C284.609 43.4687 280.43 42.9618 276.278 42.4859C274.119 42.2382 274.119 42.0409 274.188 39.8508C274.382 33.6753 274.595 27.4959 274.784 21.3203C274.858 18.8865 274.838 18.8826 277.237 18.9213C293.082 19.1767 308.924 19.5172 324.769 19.6526C334.427 19.7378 344.089 19.5288 353.747 19.4011C355.631 19.374 355.643 19.2386 355.724 17.3736C355.743 16.9286 355.79 16.472 355.91 16.0425C355.964 15.849 356.231 15.5782 356.393 15.582C356.575 15.5898 356.865 15.849 356.896 16.0348C356.981 16.5378 356.989 17.0602 356.962 17.5709C356.869 19.2309 356.629 20.8947 356.649 22.5508C356.718 27.8944 356.9 33.2342 357.001 38.5778C357.082 42.7567 357.059 42.7567 361.203 42.6135C364.887 42.4859 364.945 42.4317 365.208 38.6668C365.219 38.4733 365.231 38.2798 365.231 38.0864C365.25 26.9503 365.258 15.8181 365.305 4.682C365.308 3.50957 365.022 3.14585 363.757 3.30837C357.693 4.08611 351.618 4.79808 345.54 5.44813C334.914 6.58186 324.285 7.68077 313.652 8.74098C303.596 9.74315 293.527 10.6718 283.467 11.6275C273.02 12.622 262.576 13.6203 252.129 14.5954C241.809 15.5588 231.486 16.4952 221.162 17.4394C210.328 18.4299 199.49 19.4166 188.652 20.3917C183.908 20.8212 179.16 21.243 174.412 21.6144C173.236 21.7073 172.636 22.0942 172.725 23.375C172.803 24.4623 172.687 25.5651 172.725 26.6562C172.768 27.7396 172.296 28.1034 171.24 28.1421C168.473 28.2427 165.706 28.4245 162.944 28.618C150.546 29.477 138.145 30.3283 125.751 31.2376C121.773 31.5316 117.807 32.0308 113.833 32.3752C112.541 32.4874 112.065 33.0755 112.081 34.3447C112.104 36.2755 111.961 38.2063 111.953 40.1371C111.937 43.31 111.415 43.0469 114.774 43.105C139.441 43.5422 164.108 44.0336 188.776 44.3432C204.748 44.5405 220.729 44.4592 236.702 44.5057C238.71 44.5095 238.934 44.6295 239.101 46.4094C239.344 48.9439 239.48 48.6382 241.678 48.642C260.425 48.6498 279.168 48.6459 297.915 48.6459L297.923 48.6382ZM341.906 108.385C341.825 108.385 341.748 108.381 341.666 108.378C341.666 104.644 341.713 100.906 341.655 97.1718C341.55 90.4778 341.388 83.7799 341.233 77.0859C341.206 75.987 341.264 74.9384 339.585 74.8571C333.216 74.5398 326.858 74.0639 320.489 73.7118C312.259 73.2552 304.025 72.7173 295.787 72.4736C281.045 72.0363 266.299 71.6958 251.549 71.5256C247.648 71.4791 243.736 72.1756 239.832 72.5819C238.3 72.7406 237.441 73.5918 237.336 75.2324C237.232 76.9001 236.984 78.5601 236.752 80.2123C236.218 83.9695 235.672 87.7267 235.084 91.4761C235.026 91.8321 234.643 92.1416 234.411 92.4705C234.276 92.0836 234.001 91.6851 234.032 91.3136C234.225 89.0694 234.415 86.8212 234.752 84.5963C235.498 79.6397 236.35 74.6946 237.116 69.7418C237.398 67.9116 237.317 67.8651 235.522 67.811C232.817 67.7297 230.112 67.6562 227.407 67.5865C225.399 67.5362 225.225 67.6717 224.873 69.6025C224.792 70.0436 224.776 70.4963 224.738 70.9452C224.18 77.4573 224.714 83.9463 225.318 90.4198C225.597 93.4224 226.204 96.398 226.692 99.3774C226.924 100.809 227.705 101.393 229.253 101.281C232.399 101.049 235.56 101.053 238.71 100.883C242.784 100.662 246.456 101.865 249.923 103.877C255.364 107.031 260.181 110.986 264.662 115.366C265.722 116.403 266.833 116.999 268.334 117.208C270.621 117.529 272.88 118.086 275.121 118.678C277.048 119.189 279.025 119.742 279.841 121.928C279.899 122.083 280.105 122.184 280.244 122.307C280.36 122.118 280.511 121.944 280.592 121.742C281.165 120.26 281.59 118.701 282.349 117.324C282.67 116.739 283.711 116.174 284.365 116.236C285.553 116.348 285.653 115.818 285.692 114.952C285.777 113.087 285.87 111.222 285.994 109.357C286.203 106.273 286.439 103.193 286.659 100.113C286.729 99.1375 287.139 98.3713 288.199 98.6345C290.057 99.0988 292.026 99.4819 293.644 100.426C294.615 100.995 295.42 101.242 296.441 101.196C301.073 100.991 305.704 100.782 310.34 100.6C310.974 100.577 311.644 100.612 312.248 100.79C312.716 100.929 313.107 101.339 313.532 101.629C313.513 100.995 313.497 100.36 313.478 99.7295C313.47 99.4703 313.463 99.2149 313.451 98.9556C313.339 96.9319 313.335 96.8507 311.358 96.9126C306.529 97.0635 301.703 97.2724 296.878 97.5046C294.305 97.6284 291.74 97.8683 289.171 98.0231C288.9 98.0386 288.613 97.8412 288.335 97.7406C288.559 97.493 288.737 97.1177 289.016 97.0209C290.227 96.5914 291.477 96.2625 292.699 95.8601C294.978 95.1095 294.975 95.0978 294.944 92.7762C294.944 92.517 294.913 92.2577 294.936 92.0023C295.025 91.1201 294.673 90.7216 293.756 90.6713C292.665 90.6132 291.573 90.4623 290.498 90.265C289.31 90.0444 288.284 89.553 287.94 88.2297C287.116 85.0375 288.145 83.215 291.341 82.2399C291.771 82.1083 292.204 81.9806 292.641 81.8839C298.794 80.5257 305.012 80.2162 311.272 80.8353C314.26 81.1294 317.092 81.9303 319.499 83.8457C320.841 84.9136 320.853 85.3934 319.688 86.651C319.123 87.2624 318.411 87.8428 318.121 88.5779C317.363 90.5126 315.838 91.271 314 91.6657C313.246 91.8243 312.472 91.8824 311.714 92.0333C311.419 92.0913 311.152 92.2809 310.87 92.4086C311.114 92.5595 311.342 92.7723 311.609 92.8536C312.89 93.2405 314.055 93.6739 314.074 95.3571C314.074 95.6434 314.612 96.1735 314.89 96.1697C317.742 96.1039 318.504 98.0192 318.76 100.279C319.309 105.069 320.017 109.863 320.191 114.673C320.547 124.583 320.602 134.5 320.768 144.417C320.81 146.913 320.876 147.153 323.298 147.273C327.861 147.493 332.43 147.601 337 147.66C340.703 147.706 340.746 147.648 340.862 143.902C341.229 132.062 341.562 120.218 341.91 108.378L341.906 108.385ZM298.225 60.7803C298.225 60.8074 298.225 60.8383 298.225 60.8654C286.373 60.6836 274.521 60.4862 262.669 60.3198C255.197 60.2154 247.726 60.1573 240.25 60.0683C239.53 60.0606 238.787 59.9136 238.71 60.9931C238.594 62.5989 238.462 64.2008 238.304 65.8027C238.222 66.6269 238.528 66.9752 239.368 66.9829C241.043 67.0023 242.715 67.1029 244.39 67.1261C264.615 67.3931 284.845 67.6639 305.07 67.9077C321.174 68.1012 337.279 68.2443 353.383 68.4339C356.475 68.4688 356.231 68.0006 356.161 71.1889C356.115 73.379 355.968 75.5652 355.929 77.7514C355.647 93.1399 355.31 108.525 355.136 123.913C355.066 130.282 355.356 136.659 355.476 143.032C355.519 145.288 355.941 147.284 358.638 147.752C359.261 147.861 359.903 147.954 360.53 147.934C362.526 147.872 364.519 147.71 366.512 147.667C377.911 147.408 389.306 147.164 400.705 146.944C402.091 146.917 403.352 146.564 404.045 145.392C404.764 144.173 403.944 143.016 403.279 142.014C401.951 140.014 399.982 138.76 397.8 137.901C396.592 137.425 395.815 136.647 395.072 135.626C393.485 133.447 391.852 131.28 390.038 129.295C388.416 127.519 387.673 127.519 385.712 128.959C384.264 130.019 382.968 131.292 381.583 132.441C381.366 132.623 381.026 132.654 380.743 132.755C380.662 132.476 380.554 132.201 380.5 131.919C380.229 130.483 380.19 128.959 379.66 127.632C378.816 125.523 377.28 125.206 375.524 126.649C373.237 128.529 371.604 130.87 370.915 133.807C370.834 134.159 370.478 134.449 370.25 134.767C370.141 134.384 369.909 133.993 369.94 133.621C370.118 131.536 369.038 130.065 367.607 128.792C366.732 128.019 365.66 127.91 364.79 128.703C362.824 130.495 361.126 132.472 360.762 135.285C360.468 137.576 360.123 139.867 359.675 142.134C359.493 143.059 358.781 143.91 357.763 143.531C357.376 143.384 357.067 142.153 357.233 141.558C357.852 139.337 358.696 137.177 359.427 134.987C359.709 134.144 360.061 133.285 360.127 132.41C360.325 129.779 360.448 127.14 360.514 124.501C361.106 99.9694 360.812 75.4375 360.298 50.9056C360.274 49.7564 360.069 49.1141 358.719 49.1257C357.392 49.1373 357.303 49.8338 357.334 50.8592C357.434 54.0785 357.442 57.2979 357.577 60.5133C357.624 61.6277 357.318 61.945 356.188 61.9218C336.868 61.5193 317.545 61.1595 298.221 60.788L298.225 60.7803ZM318.706 43.3681C318.706 43.31 318.706 43.2481 318.706 43.1901C322.439 43.1901 326.177 43.221 329.911 43.1824C338.091 43.0972 346.267 42.9773 354.447 42.8767C355.461 42.8651 356.37 42.8999 356.324 41.4063C356.126 34.7161 355.991 28.0221 355.848 21.3281C355.828 20.4575 355.569 20.1092 354.582 20.1518C350.659 20.3182 346.731 20.4962 342.808 20.4575C321.108 20.2292 299.409 19.9351 277.706 19.6681C275.693 19.6449 275.635 19.6449 275.566 21.6105C275.353 27.6584 275.221 33.7062 274.978 39.7541C274.92 41.1935 275.508 41.712 276.827 41.8165C279.393 42.0215 281.95 42.4123 284.52 42.4897C295.911 42.8264 307.306 43.0817 318.702 43.3642L318.706 43.3681ZM288.691 149.366C288.691 149.308 288.691 149.254 288.691 149.196C290.56 149.196 292.429 149.18 294.297 149.196C304.598 149.289 314.898 148.824 325.191 149.869C329.459 150.302 333.804 150.004 338.11 149.915C338.788 149.9 339.453 149.234 340.123 148.867C339.476 148.743 338.83 148.6 338.18 148.499C337.932 148.46 337.665 148.53 337.41 148.522C332.523 148.368 327.628 148.337 322.753 148C320.064 147.814 320.029 147.485 319.994 144.87C319.866 135.726 319.859 126.579 319.522 117.444C319.317 111.922 318.617 106.42 318.067 100.917C317.966 99.9152 317.746 98.7467 317.138 98.027C316.635 97.4311 315.482 97.3847 314.619 97.0944C314.484 97.5433 314.213 97.996 314.233 98.4371C314.751 108.915 315.378 119.394 315.803 129.876C315.989 134.434 315.85 139.011 315.699 143.577C315.622 145.922 315.362 146.154 313.083 146.259C308.007 146.491 302.922 146.63 297.838 146.688C296.58 146.704 295.304 146.313 294.058 146.015C292.986 145.756 292.556 145.028 292.564 143.875C292.595 135.695 292.568 127.519 292.576 119.34C292.576 118.442 292.692 117.544 292.746 116.643C292.827 115.331 293.384 114.689 294.828 114.797C296.751 114.944 298.689 114.959 300.62 114.944C303.905 114.913 307.19 114.886 310.468 114.716C312.665 114.603 312.96 114.294 312.948 112.162C312.929 109.206 312.731 106.249 312.611 103.289C312.557 101.962 311.965 101.378 310.545 101.444C305.786 101.664 301.019 101.827 296.255 101.935C294.928 101.966 294.673 102.5 294.766 103.723C294.959 106.222 295.056 108.734 295.033 111.237C295.025 111.953 294.452 112.661 294.139 113.373C293.868 112.646 293.384 111.922 293.361 111.191C293.276 108.231 293.291 105.267 293.365 102.307C293.392 101.297 293.075 100.751 292.111 100.492C291.121 100.225 290.157 99.8495 289.167 99.5786C287.994 99.2613 287.418 99.5902 287.36 100.964C287.17 105.464 286.853 109.96 286.586 114.46C286.547 115.103 286.501 115.745 286.501 116.387C286.501 116.542 286.671 116.697 286.76 116.852C286.872 116.728 287.046 116.619 287.081 116.476C287.139 116.232 287.116 115.965 287.112 115.706C287.1 114.882 287.147 114.019 288.273 114.155C289.225 114.271 290.447 114.166 290.401 115.756C290.351 117.428 290.374 119.104 290.401 120.779C290.505 128.247 290.517 135.719 290.78 143.179C290.919 147.079 291.128 147.052 287.139 146.483C286.299 146.363 285.646 146.224 285.522 145.218C285.394 144.162 284.91 144.243 284.086 144.707C282.635 145.52 281.145 146.344 279.574 146.851C274.196 148.588 269.309 146.561 266.713 141.569C266.063 140.323 265.432 138.992 265.18 137.63C264.623 134.604 264.333 131.532 263.884 128.483C263.787 127.837 263.675 126.931 263.238 126.649C262.112 125.914 261.822 124.873 261.651 123.712C261.423 122.153 260.882 121.681 259.667 122.501C257.635 123.871 255.371 123.793 253.17 123.886C244.738 124.254 236.303 124.49 227.872 124.745C223.519 124.877 223.391 124.919 223.569 129.396C223.681 132.221 224.08 135.038 224.204 137.862C224.246 138.888 223.91 139.948 223.639 140.962C223.546 141.31 223.128 141.569 222.857 141.871C223.279 141.944 223.701 142.084 224.126 142.084C229.539 142.111 234.949 142.122 240.362 142.13C242.401 142.13 242.374 142.115 242.692 140.068C243.16 137.088 244.394 134.519 247.528 133.718C250.059 133.068 252.702 132.685 255.31 132.581C258.393 132.461 260.696 134.086 261.582 137.05C262.096 138.772 262.36 140.78 261.984 142.498C261.551 144.502 260.375 146.371 259.372 148.221C258.924 149.049 258.858 149.358 259.895 149.339C260.282 149.331 260.669 149.343 261.056 149.343C270.269 149.343 279.482 149.343 288.695 149.343L288.691 149.366ZM296.677 68.6042C278.127 68.3604 259.574 68.1166 241.024 67.8729C238.916 67.8445 237.851 68.9008 237.828 71.0419C237.828 71.1077 237.824 71.1696 237.816 71.2354C237.735 72.017 237.963 72.1408 238.803 72.0325C242.753 71.5256 246.712 70.891 250.682 70.7865C257.89 70.593 265.118 70.5427 272.323 70.7904C287.77 71.3244 303.213 72.0441 318.655 72.7793C325.794 73.1198 332.922 73.704 340.057 74.1181C341.318 74.1916 341.933 74.5863 341.945 75.9367C341.964 77.8017 342.224 79.6629 342.235 81.5279C342.297 94.4052 342.433 107.283 342.324 120.16C342.251 128.719 341.81 137.274 341.527 145.833C341.496 146.743 341.276 147.671 342.754 147.613C346.55 147.466 350.353 147.389 354.149 147.307C355.035 147.288 355.147 146.905 355.082 146.085C354.807 142.56 354.404 139.027 354.443 135.502C354.671 114.062 355 92.6214 355.306 71.1851C355.333 69.2542 355.368 69.2504 353.487 69.231C334.551 69.0221 315.61 68.8131 296.673 68.6042H296.677ZM164.863 58.9578C154.33 58.7605 134.047 58.3851 113.76 58.0021C111.589 57.9595 111.585 57.9402 111.539 60.0451C111.442 64.2937 111.349 68.5384 111.26 72.787C110.912 89.7813 110.564 106.772 110.219 123.766C110.215 124.021 110.223 124.281 110.204 124.536C110.15 125.244 110.428 125.743 111.171 125.577C111.535 125.496 111.945 125.074 112.096 124.71C112.282 124.254 112.239 123.7 112.259 123.186C112.963 105.046 113.671 86.9064 114.363 68.7667C114.46 66.2671 114.46 66.209 116.995 66.1123C123.302 65.8763 129.609 65.5048 135.916 65.4777C159.361 65.3771 182.801 65.3733 206.246 65.3926C208.877 65.3926 211.508 65.7524 214.143 65.9304C215.49 66.0233 215.931 66.6231 215.888 68.047C215.734 73.4487 215.703 78.858 215.71 84.2636C215.714 88.9649 215.85 93.6623 215.884 98.3636C215.892 99.4432 216.028 100.205 217.366 100.325C219.928 100.55 222.482 100.898 225.039 101.2C226.034 101.316 226.235 100.914 226.03 99.9617C224.068 90.915 223.615 81.7407 223.805 72.52C223.832 71.2392 224.045 69.9585 224.246 68.6893C224.451 67.3737 225.125 66.7237 226.622 66.7933C229.71 66.9404 232.805 66.8475 235.893 66.9558C237.085 66.9984 237.518 66.5186 237.58 65.4236C237.661 64.0112 237.777 62.5989 237.917 61.1904C238.002 60.3508 237.63 59.9987 236.833 59.9871C236.384 59.9793 235.932 59.9522 235.483 59.9484C215.196 59.6659 194.909 59.3796 164.87 58.9617L164.863 58.9578ZM297.892 60.0529C297.892 60.1728 297.892 60.2928 297.892 60.4088C306.521 60.4088 315.153 60.3237 323.782 60.432C334.152 60.5559 344.518 60.8461 354.884 61.0589C356.722 61.0976 356.757 61.0821 356.726 59.3022C356.676 56.404 356.548 53.5097 356.517 50.6116C356.506 49.5475 356.122 49.1451 355.031 49.1799C352.458 49.2611 349.881 49.2573 347.304 49.2611C320.702 49.3037 294.096 49.3424 267.494 49.3772C258.734 49.3888 249.974 49.4082 241.213 49.354C239.828 49.3463 239.236 49.6906 239.256 51.161C239.279 53.2195 239.105 55.278 239.019 57.3365C238.946 59.1629 238.954 59.1706 240.703 59.1977C259.767 59.4841 278.828 59.7704 297.892 60.0529ZM175.182 49.3695C175.182 49.2844 175.182 49.2031 175.182 49.118C160.889 48.8626 146.592 48.6266 132.298 48.3364C126.053 48.2125 119.808 48.0152 113.566 47.7676C112.193 47.7134 111.767 48.1468 111.802 49.4894C111.852 51.3506 111.713 53.2195 111.655 55.0846C111.611 56.475 112.314 57.1831 113.764 57.2089C132.503 57.5494 151.239 57.917 169.978 58.2188C186.593 58.4858 203.208 58.6792 219.823 58.9075C225.233 58.981 230.642 59.0816 236.052 59.1513C237.975 59.1784 238.006 59.1552 238.145 57.1663C238.284 55.1774 238.393 53.1847 238.443 51.192C238.489 49.3888 238.443 49.3695 236.624 49.3695C216.144 49.3656 195.663 49.3695 175.182 49.3695ZM222.11 146.181C227.113 146.054 234.005 145.883 240.892 145.702C242.56 145.659 243.167 144.939 242.448 143.647C242.192 143.19 241.19 142.947 240.532 142.943C229.714 142.92 218.891 142.947 208.072 142.962C207.364 142.962 206.652 142.962 205.948 142.904C205.754 142.889 205.58 142.66 205.398 142.533C205.588 142.405 205.77 142.169 205.963 142.161C207.635 142.099 209.318 142.153 210.982 142.03C214.375 141.778 217.78 141.561 221.147 141.085C223.306 140.78 223.468 140.37 223.387 138.265C223.345 137.108 223.182 135.959 223.109 134.802C222.958 132.364 222.671 129.918 222.737 127.485C222.822 124.517 223.395 124.145 226.343 124.037C236.059 123.681 245.775 123.302 255.491 122.903C256.319 122.868 257.148 122.671 257.96 122.493C258.15 122.451 258.285 122.168 258.444 121.994C258.262 121.858 258.092 121.638 257.894 121.611C257.453 121.545 256.997 121.557 256.544 121.572C249.912 121.766 243.284 121.959 236.655 122.164C226.162 122.485 215.672 122.865 205.178 123.112C202.16 123.182 199.13 122.954 196.112 122.729C195.206 122.659 193.802 122.362 193.558 121.777C192.958 120.346 191.968 120.539 190.911 120.551C189.495 120.566 188.06 120.485 186.667 120.667C183.552 121.077 180.418 121.472 177.361 122.172C175.136 122.683 175.093 123.259 176.626 124.9C176.889 125.182 177.152 125.465 177.396 125.767C179.079 127.883 178.626 129.516 176.115 130.584C174.037 131.47 171.944 131.246 169.862 130.716C168.918 130.476 168.426 130.596 168.198 131.625C167.978 132.627 167.567 133.583 167.293 134.573C166.828 136.253 166.941 136.392 168.666 136.694C170.183 136.957 171.712 137.193 173.205 137.557C173.58 137.646 173.851 138.176 174.169 138.501C173.72 138.655 173.228 139.011 172.834 138.926C171.39 138.617 169.997 138.098 168.558 137.773C167.25 137.475 165.908 137.317 164.58 137.123C163.748 136.999 163.207 137.355 163.067 138.211C162.812 139.793 162.437 141.376 162.363 142.966C162.286 144.653 162.704 144.982 164.398 144.997C166.136 145.013 167.877 144.982 169.614 144.924C172.954 144.812 172.954 144.8 174.072 141.689C174.114 141.569 174.126 141.426 174.196 141.325C174.331 141.124 174.494 140.946 174.648 140.76C174.85 140.966 175.171 141.14 175.237 141.383C175.565 142.625 175.774 143.898 176.15 145.125C176.266 145.508 176.769 146.019 177.102 146.027C177.423 146.034 177.821 145.504 178.065 145.133C178.224 144.893 178.146 144.506 178.201 144.189C178.831 140.555 179.721 137.007 181.88 133.923C184.128 130.712 187.406 129.412 191.155 130.553C192.97 131.102 194.773 131.954 196.332 133.029C200.477 135.897 201.254 140.246 198.6 144.514C197.629 146.077 197.629 146.154 199.552 146.162C206.439 146.197 213.331 146.178 222.106 146.178L222.11 146.181ZM101.13 15.6091C101.246 15.6091 101.362 15.613 101.478 15.6169C101.478 18.6427 101.447 21.6686 101.49 24.6944C101.517 26.7916 101.567 26.8613 103.707 26.7065C110.065 26.2461 116.418 25.7547 122.772 25.2284C138.555 23.9167 154.334 22.5702 170.117 21.2739C171.476 21.1617 172.114 20.7399 171.948 19.285C171.298 13.5351 170.671 7.78524 170.086 2.0276C169.986 1.01769 169.525 0.735227 168.597 0.746835C165.826 0.77779 163.056 0.808745 160.289 0.739096C159.035 0.708141 158.645 1.16086 158.579 2.39906C158.296 7.66916 157.851 12.9315 157.592 18.2016C157.523 19.6256 157.085 20.0396 155.665 20.0628C152.063 20.1208 148.457 20.2988 144.866 20.5852C142.618 20.7631 142.649 20.8908 142.556 18.6505C142.347 13.5042 142.103 8.36178 141.902 3.2155C141.863 2.22494 141.763 1.5091 140.462 1.46654C135.633 1.3079 130.808 1.07573 125.987 0.820353C124.962 0.766182 124.602 1.17247 124.567 2.13207C124.532 3.22324 124.335 4.3144 124.346 5.40557C124.397 10.5557 124.459 15.7059 124.594 20.8521C124.625 22.0439 124.265 22.4579 123.081 22.4192C120.957 22.3535 118.829 22.3999 116.704 22.4038C112.046 22.4154 111.86 22.2374 111.624 17.4548C111.612 17.1994 111.593 16.9402 111.593 16.681C111.605 12.177 111.581 7.66916 111.655 3.1652C111.674 1.98117 111.334 1.51684 110.126 1.65614C108.145 1.88443 106.157 2.0276 104.172 2.23268C102.736 2.38358 101.78 3.02203 101.707 4.63169C101.54 8.29213 101.328 11.9526 101.134 15.613L101.13 15.6091ZM227.218 120.527C214.135 120.527 205.371 120.527 196.611 120.527C196.031 120.527 195.45 120.535 194.878 120.616C194.669 120.647 194.487 120.891 194.293 121.038C194.479 121.263 194.63 121.63 194.854 121.684C195.663 121.878 196.499 122.056 197.327 122.079C200.74 122.18 204.156 122.365 207.565 122.261C223.275 121.793 238.977 121.208 254.687 120.748C256.784 120.686 258.893 121.131 261.001 121.274C261.385 121.301 261.915 121.108 262.166 120.825C263.842 118.941 265.73 119.053 266.972 121.255C268.04 123.147 268.048 125.182 267.49 127.245C266.233 131.896 266.767 136.434 268.62 140.795C268.984 141.654 270.102 142.564 271.015 142.753C274.587 143.496 278.181 143.256 281.714 142.293C282.608 142.049 283.003 141.554 282.879 140.617C282.724 139.472 282.697 138.299 282.461 137.17C281.494 132.523 280.511 127.875 279.451 123.248C279.01 121.325 277.663 120.164 275.744 119.719C272.989 119.076 270.242 118.364 267.459 117.885C266.225 117.672 265.382 117.111 264.48 116.341C260.715 113.125 256.993 109.84 253.042 106.865C248.48 103.429 243.415 101.169 237.464 101.687C229.965 102.337 222.455 102.887 214.96 103.572C209.616 104.059 204.888 106.079 200.805 109.6C199.637 110.606 198.294 111.411 197.133 112.425C194.247 114.948 190.908 116.047 187.096 116.31C182.929 116.596 178.777 117.238 174.861 118.86C172.489 119.843 170.299 121.123 169.154 123.515C167.382 127.221 165.753 130.998 164.12 134.771C163.919 135.239 163.307 136.055 164.414 136.303C165.242 136.489 166.062 136.578 166.287 135.328C166.476 134.26 166.894 133.231 167.204 132.182C167.985 129.52 167.978 129.543 170.671 130.081C172.524 130.449 174.393 130.565 176.15 129.671C177.786 128.839 177.984 127.883 176.846 126.455C176.366 125.852 175.774 125.341 175.287 124.741C174.223 123.429 174.35 122.57 175.91 121.878C177.191 121.309 178.572 120.787 179.946 120.651C183.974 120.257 188.017 120.04 192.061 119.819C192.966 119.769 193.477 119.529 194.069 118.732C195.439 116.902 197.002 115.192 198.658 113.609C199.567 112.742 200.755 112.092 201.92 111.581C208.157 108.85 214.681 107.186 221.476 106.663C222.354 106.594 223.31 106.663 224.122 106.965C224.703 107.178 225.167 108.316 225.573 108.258C226.223 108.169 226.746 107.352 227.4 106.992C227.887 106.725 228.502 106.574 229.06 106.574C233.107 106.574 237.158 106.524 241.202 106.683C247.497 106.927 252.295 110.022 256.045 114.901C256.617 115.644 257.043 116.554 257.326 117.451C257.639 118.442 257.283 119.239 256.091 119.382C255.135 119.498 254.18 119.684 253.22 119.715C243.113 120.044 233.01 120.349 227.222 120.527H227.218ZM112.831 136.953C112.734 136.953 112.634 136.953 112.537 136.953C112.475 137.916 112.402 138.88 112.355 139.843C112.313 140.807 112.289 141.774 112.27 142.738C112.185 146.909 112.185 146.847 116.337 146.874C128.44 146.955 140.54 147.071 152.643 147.234C153.889 147.249 154.179 146.847 154.152 145.706C154.021 140.621 153.955 135.537 153.858 130.456C153.823 128.572 153.812 128.614 151.939 128.553C146.019 128.367 140.099 128.216 134.186 127.914C127.759 127.589 121.34 127.102 114.917 126.703C112.994 126.583 112.905 126.602 112.851 128.464C112.773 131.292 112.831 134.124 112.831 136.953ZM102.403 106.644C102.171 115.381 101.788 130.507 101.331 145.624C101.297 146.777 101.726 146.901 102.628 146.89C105.011 146.862 107.395 146.82 109.778 146.89C110.955 146.924 111.338 146.514 111.376 145.35C111.55 139.623 111.802 133.896 112.022 128.169C112.03 127.976 112.1 127.732 112.011 127.601C111.728 127.187 111.38 126.482 111.067 126.486C109.372 126.513 109.298 125.573 109.329 124.238C109.716 108.467 110.057 92.695 110.409 76.9234C110.533 71.3863 110.657 65.8492 110.773 60.316C110.823 57.9402 110.808 57.9363 108.528 57.886C106.919 57.8473 105.309 57.8125 103.699 57.7893C101.567 57.7544 101.579 57.7583 101.614 59.8826C101.846 73.3364 102.07 86.7942 102.407 106.644H102.403ZM314.217 111.767C314.097 111.767 313.977 111.763 313.857 111.759C313.815 112.007 313.757 112.255 313.733 112.506C313.482 115.048 313.3 115.246 310.696 115.478C309.16 115.613 307.62 115.776 306.08 115.784C302.477 115.803 298.871 115.784 295.269 115.675C294.046 115.64 293.504 115.954 293.504 117.25C293.504 119.049 293.272 120.849 293.28 122.648C293.307 129.659 293.408 136.674 293.438 143.686C293.442 144.607 293.736 145.164 294.646 145.35C295.338 145.493 296.023 145.678 296.72 145.767C301.994 146.437 307.26 146.054 312.511 145.512C314.883 145.268 314.968 145.175 314.975 142.796C314.995 136.748 314.991 130.7 314.855 124.656C314.759 120.357 314.438 116.066 314.217 111.771V111.767ZM224.413 119.8C224.413 119.665 224.413 119.529 224.413 119.39C230.724 119.39 237.038 119.467 243.349 119.363C247.207 119.297 251.065 119.011 254.919 118.713C256.799 118.57 257.136 117.95 256.049 116.41C253.286 112.502 249.966 109.213 245.063 108.13C239.933 106.996 234.736 106.741 229.509 107.306C226.87 107.588 226.096 108.42 225.856 111.094C225.701 112.82 225.558 114.565 225.171 116.244C224.966 117.126 224.246 117.889 223.759 118.705C223.674 117.796 223.468 116.882 223.53 115.985C223.65 114.255 223.995 112.541 224.118 110.811C224.358 107.41 224.037 107.074 220.671 107.453C214.89 108.107 209.256 109.469 203.851 111.612C200.519 112.932 197.578 114.905 195.481 117.912C195.168 118.361 195.028 118.937 194.812 119.452C195.342 119.568 195.872 119.785 196.398 119.785C205.739 119.804 215.08 119.8 224.416 119.8H224.413ZM101.769 32.0966C101.769 32.0966 101.8 32.0966 101.811 32.0966C101.989 35.1186 102.202 38.1367 102.33 41.1587C102.384 42.4007 102.755 43.0314 104.148 42.9618C105.948 42.8689 107.758 42.8999 109.558 43.0082C110.889 43.0895 111.214 42.4975 111.202 41.3057C111.175 38.8602 111.233 36.4109 111.28 33.9655C111.314 32.0656 111.4 31.8915 113.346 31.6942C119.111 31.1137 124.873 30.5101 130.65 30.0884C143.237 29.1636 155.832 28.3278 168.426 27.4959C172.513 27.225 171.828 27.7164 171.948 23.6691C171.99 22.3225 171.588 21.8234 170.195 21.9781C167.061 22.3264 163.915 22.5702 160.769 22.841C150.763 23.7039 140.753 24.5861 130.743 25.4064C121.886 26.1339 113.021 26.78 104.164 27.4959C101.676 27.6971 101.683 27.7474 101.761 30.1657C101.78 30.8081 101.761 31.4543 101.761 32.0966H101.769ZM175.086 45.1054V44.8036C173.608 44.8036 172.126 44.823 170.644 44.8036C156.157 44.5676 141.67 44.3199 127.187 44.0917C122.617 44.0181 118.043 44.0181 113.474 43.9021C112.177 43.8711 111.817 44.347 111.837 45.5814C111.852 46.5951 112.173 46.9666 113.16 46.9627C114.058 46.9589 114.959 47.0943 115.857 47.1175C124.482 47.3458 133.107 47.6437 141.735 47.7598C161.694 48.0307 181.656 48.2242 201.618 48.4176C213.207 48.5298 224.799 48.5763 236.388 48.642C238.489 48.6537 238.586 48.4873 238.396 46.6609C238.292 45.682 237.843 45.3066 236.907 45.3376C236.137 45.3647 235.363 45.3376 234.589 45.3299C214.755 45.2563 194.924 45.1828 175.09 45.1093L175.086 45.1054ZM100.058 131.753C99.5863 128.858 99.1761 126.192 98.6886 123.538C98.5919 123.019 98.201 122.551 97.9418 122.06C97.6709 122.52 97.2724 122.954 97.1525 123.449C96.75 125.136 96.456 126.846 96.0884 128.541C96.0303 128.8 95.7866 129.017 95.6279 129.253C95.5157 129.048 95.419 128.831 95.2951 128.634C94.5097 127.403 93.8287 126.088 92.9039 124.973C91.8785 123.743 90.6364 122.694 89.4756 121.576C88.1987 120.342 87.8504 120.318 86.7864 121.828C85.7919 123.244 84.9445 124.768 84.0972 126.281C83.4432 127.446 82.5494 127.744 81.3499 127.249C80.4561 126.881 79.5738 126.486 78.6761 126.138C77.2367 125.585 75.8128 124.954 74.3347 124.544C71.7151 123.816 70.6394 124.412 69.7766 126.947C69.3432 128.224 69.1459 129.593 68.6158 130.82C68.1166 131.965 67.5672 133.389 66.6037 133.981C63.1135 136.125 61.8753 139.611 60.5713 143.113C60.4746 143.372 60.5907 143.713 60.6061 144.018C60.9041 143.999 61.2987 144.092 61.4845 143.937C62.3009 143.245 63.1831 142.575 63.8061 141.724C64.8508 140.308 65.5202 139.936 67.2073 140.474C68.1243 140.768 68.9717 141.26 69.881 141.577C71.0883 141.999 72.3033 142.467 73.557 142.684C74.8609 142.912 74.9461 142.625 74.6017 141.325C74.2109 139.851 73.8007 138.35 73.704 136.837C73.6189 135.533 74.5669 134.852 75.867 135.049C76.6176 135.165 77.3993 135.382 78.0609 135.75C79.748 136.678 81.3731 137.723 83.0292 138.706C83.4007 138.926 83.8147 139.07 84.2094 139.247C84.3216 138.779 84.4957 138.319 84.5344 137.847C84.6853 135.928 84.6659 133.981 84.9562 132.085C85.1844 130.603 86.2408 130.147 87.5254 130.924C88.6669 131.617 89.6923 132.53 90.6828 133.44C92.5285 135.142 94.2581 136.968 96.1348 138.636C97.7483 140.068 98.7737 139.781 99.2613 137.665C99.7178 135.68 99.8184 133.61 100.054 131.753H100.058ZM305.116 81.1371C300.318 81.4467 295.582 81.7678 291.005 83.2188C288.981 83.8612 288.319 85.1071 288.602 87.3978C288.784 88.8643 289.538 89.3944 291.686 89.6575C294.553 90.0096 297.436 90.2843 300.276 90.7951C304.811 91.6077 309.315 91.8669 313.849 90.8725C315.424 90.5242 316.701 89.9167 317.367 88.2568C317.684 87.4636 318.388 86.7864 319.023 86.1673C319.712 85.4979 319.735 84.9368 318.907 84.5073C317.32 83.6909 315.765 82.6268 314.066 82.267C311.133 81.6479 308.103 81.4892 305.116 81.1371ZM107.875 46.866C107.875 46.8428 107.882 46.8196 107.886 46.7964C108.463 46.7964 109.051 46.7344 109.62 46.808C110.773 46.9627 111.063 46.3746 111.105 45.3685C111.148 44.3354 110.854 43.8401 109.709 43.8518C107.654 43.8711 105.595 43.7744 103.541 43.7008C101.676 43.6351 101.687 43.6196 101.575 41.6888C101.339 37.5834 101.041 33.4818 100.879 29.3764C100.828 28.1188 100.449 27.6274 99.1839 27.7822C97.9108 27.937 96.6223 28.0337 95.3416 28.0608C94.4245 28.0801 94.1498 28.498 94.0686 29.3493C93.6352 33.8881 93.1244 38.4153 92.7027 42.9541C92.4898 45.2409 92.5943 45.4072 94.8347 45.651C99.1761 46.1192 103.529 46.4713 107.878 46.8737L107.875 46.866ZM183.188 143.531C183.03 147.76 184.303 149.161 187.584 148.979C189.418 148.878 191.256 148.488 193.051 148.054C194.235 147.768 194.967 146.994 195.396 145.659C196.874 141.062 194.27 135.734 189.716 134.426C186.396 133.474 184.453 134.581 183.846 137.963C183.459 140.103 183.331 142.289 183.192 143.531H183.188ZM154.539 99.2806C154.597 99.2806 154.651 99.2806 154.71 99.2806C154.71 108.169 154.698 117.053 154.737 125.941C154.737 126.459 155.096 127.368 155.394 127.415C156.362 127.57 156.435 126.73 156.462 125.987C156.478 125.538 156.517 125.086 156.524 124.637C156.772 113.756 157.035 102.879 157.252 91.9985C157.372 86.0125 157.403 80.0227 157.511 74.0329C157.53 72.8605 157.333 71.8738 156.273 71.1928C155.298 70.566 154.864 70.6975 154.74 71.8506C154.597 73.1933 154.547 74.5514 154.547 75.9018C154.532 83.6948 154.539 91.4877 154.539 99.2806ZM251.874 136.481C250.241 136.632 249.084 136.705 247.938 136.852C245.965 137.112 244.692 138.288 243.945 140.076C243.202 141.848 243.411 142.246 245.369 142.165C246.979 142.095 247.706 142.765 248.027 144.262C248.267 145.38 248.588 146.522 249.103 147.536C250.272 149.846 253.239 150.252 255.07 148.395C256.722 146.712 257.859 144.707 258.366 142.393C258.9 139.971 257.755 137.827 255.379 137.073C254.118 136.674 252.744 136.62 251.874 136.481ZM218.461 149.66V149.482C226.378 149.482 234.295 149.482 242.212 149.482C242.599 149.482 242.986 149.482 243.369 149.482C244.371 149.482 244.375 149.087 243.984 148.283C243.063 146.398 243.082 146.433 240.513 146.476C226.873 146.7 213.23 147.033 199.59 146.967C196.948 146.955 195.125 148.081 193.032 149.033C192.893 149.095 192.807 149.277 192.699 149.401C192.858 149.49 193.005 149.633 193.171 149.66C193.419 149.703 193.682 149.66 193.941 149.66C202.113 149.66 210.289 149.66 218.461 149.66ZM179.872 149.722V149.703C180.901 149.703 181.931 149.726 182.96 149.687C183.304 149.675 183.645 149.501 183.989 149.405C183.83 149.149 183.652 148.905 183.517 148.639C183.169 147.965 182.612 147.304 182.542 146.595C182.186 142.985 182.426 139.395 183.618 135.947C184.217 134.202 185.579 133.308 187.479 133.316C189.913 133.323 192.022 134.163 193.728 135.881C195.992 138.16 196.913 140.946 196.688 144.135C196.669 144.413 196.789 144.703 196.843 144.99C197.091 144.827 197.393 144.711 197.575 144.494C199.946 141.666 199.927 137.835 197.482 135.158C195.702 133.207 193.45 131.973 190.915 131.315C187.503 130.425 184.693 131.458 182.658 134.345C181.996 135.281 181.327 136.291 180.99 137.367C180.186 139.929 179.501 142.536 178.924 145.164C178.707 146.15 178.537 146.843 177.369 146.948C176.726 147.006 175.716 148.844 176.107 149.308C176.401 149.66 177.179 149.66 177.756 149.71C178.456 149.772 179.168 149.726 179.876 149.726L179.872 149.722ZM354.9 149.161C354.919 149.281 354.935 149.397 354.954 149.517C355.186 149.602 355.414 149.722 355.654 149.768C356.095 149.85 356.544 149.904 356.989 149.942C369.53 150.999 382.032 150.685 394.484 148.805C395.118 148.708 395.745 148.561 396.368 148.418C396.472 148.395 396.557 148.275 396.65 148.201C396.534 148.097 396.426 147.927 396.294 147.907C395.981 147.865 395.656 147.888 395.335 147.896C383.382 148.178 371.426 148.449 359.473 148.758C357.945 148.797 356.424 149.022 354.896 149.161H354.9ZM289.507 133.223C289.507 130.627 289.511 127.287 289.499 123.944C289.499 123.638 289.379 123.337 289.318 123.031C289.105 123.228 288.9 123.429 288.679 123.619C288.412 123.847 288.13 124.064 287.855 124.285C287.646 123.921 287.286 123.569 287.251 123.186C287.143 122.036 287.197 120.876 287.108 119.726C287.077 119.363 286.791 119.018 286.617 118.666C286.512 119.003 286.323 119.34 286.311 119.68C286.21 122.439 286.21 125.206 286.044 127.961C285.878 130.746 285.812 133.471 287.557 135.881C287.778 136.183 287.863 136.585 288.014 136.941C288.822 138.841 288.617 140.555 287.155 142.091C286.772 142.498 286.361 142.981 286.23 143.5C285.808 145.156 286.508 145.69 288.892 145.876C289.859 145.953 290.119 145.717 290.06 144.734C289.84 141.147 289.708 137.553 289.511 133.215L289.507 133.223ZM306.618 96.1426C308.309 96.1426 310.112 96.1851 311.915 96.1116C312.313 96.0961 313.033 95.6396 313.014 95.4461C312.967 94.9585 312.689 94.3356 312.298 94.0841C311.725 93.7165 310.975 93.6236 310.301 93.4108C306.184 92.1107 301.893 92.397 297.675 92.0139C295.926 91.8553 295.849 91.8785 295.857 93.7281C295.861 94.7999 295.636 95.6086 294.58 96.0691C294.282 96.2006 294.061 96.5102 293.806 96.7423C294.181 96.7655 294.557 96.8236 294.924 96.8042C298.782 96.5953 302.64 96.3709 306.614 96.1426H306.618ZM251.622 135.409C251.649 135.471 251.676 135.537 251.699 135.599C252.717 135.734 253.75 135.792 254.745 136.017C258.243 136.806 260.022 139.487 259.028 142.927C258.506 144.734 257.368 146.367 256.505 148.074C256.316 148.445 256.107 148.809 255.909 149.176C256.451 149.122 257.004 149.111 257.531 148.991C257.747 148.94 257.925 148.673 258.092 148.48C259.953 146.34 261.21 143.91 261.504 141.062C261.899 137.235 259.465 133.865 255.789 133.389C252.667 132.987 249.645 133.726 246.762 134.914C246.143 135.169 245.655 135.769 245.149 136.256C245.009 136.392 245.029 136.686 244.974 136.907C245.145 136.879 245.319 136.868 245.485 136.829C247.532 136.357 249.575 135.881 251.622 135.405V135.409ZM285.181 137.971C285.135 132.762 284.984 132.213 282.705 128.998C282.565 128.8 282.376 128.645 282.206 128.467C282.136 128.734 281.973 129.017 282.012 129.268C282.48 132.31 283.049 135.339 283.448 138.389C284.013 142.695 283.618 143.113 279.249 143.67C276.177 144.061 273.116 144.297 270.075 143.419C269.855 143.357 269.595 143.434 269.355 143.45C269.456 143.674 269.495 143.976 269.665 144.107C270.427 144.684 271.166 145.346 272.021 145.733C275.918 147.485 279.524 146.472 283.022 144.463C284.597 143.558 285.622 142.475 285.204 140.47C285.038 139.669 285.177 138.806 285.177 137.971H285.181ZM285.216 123.963C285.336 123.963 285.452 123.963 285.572 123.963C285.572 122.234 285.642 120.5 285.533 118.778C285.495 118.194 285.158 117.389 284.701 117.118C283.908 116.65 283.212 117.231 282.844 117.978C282.364 118.945 281.85 119.932 281.602 120.969C280.766 124.428 282.616 127.148 284.253 129.907C284.4 130.154 284.678 130.325 284.891 130.53C284.999 130.197 285.197 129.868 285.201 129.535C285.232 127.678 285.216 125.821 285.216 123.96V123.963ZM245.334 142.943C243.349 142.92 243.094 143.144 243.585 144.897C243.926 146.108 244.502 147.265 245.071 148.395C245.768 149.78 247.072 149.552 248.275 149.378C248.418 149.358 248.627 148.704 248.546 148.418C248.163 147.071 247.621 145.771 247.265 144.421C246.971 143.291 246.383 142.765 245.33 142.943H245.334ZM158.799 142.482C158.896 143.229 158.807 143.771 159.02 143.949C159.515 144.355 160.138 144.653 160.753 144.846C160.951 144.908 161.508 144.549 161.535 144.332C161.814 142.25 162.011 140.153 162.247 138.063C162.348 137.17 161.787 137.015 161.191 137.278C160.719 137.487 160.2 137.94 160.03 138.4C159.504 139.832 159.14 141.322 158.799 142.482ZM264.36 128.595C264.956 131.803 265.54 135.011 266.159 138.211C266.214 138.493 266.477 138.733 266.643 138.996C266.666 138.679 266.744 138.354 266.697 138.044C266.109 134.043 265.416 130.042 266.96 126.088C267.049 125.859 267.065 125.573 267.03 125.325C266.999 125.105 266.856 124.9 266.759 124.691C266.597 124.768 266.384 124.803 266.275 124.927C265.358 125.96 264.051 126.827 264.356 128.595H264.36ZM251.672 152.044C252.481 151.792 253.584 151.482 254.66 151.099C254.899 151.014 255.046 150.662 255.232 150.43C254.926 150.372 254.563 150.179 254.323 150.279C252.814 150.898 251.367 150.782 249.831 150.298C249.18 150.093 248.368 150.411 247.629 150.488C248.29 150.902 248.913 151.39 249.622 151.699C250.132 151.924 250.748 151.9 251.668 152.044H251.672ZM264.19 120.21C263.729 120.62 262.967 120.972 262.886 121.437C262.692 122.594 262.777 123.805 262.832 124.989C262.839 125.198 263.242 125.391 263.462 125.592C263.598 125.333 263.78 125.089 263.865 124.819C264.232 123.685 264.569 122.543 264.921 121.402C264.991 121.174 265.207 120.837 265.13 120.748C264.944 120.535 264.627 120.442 264.186 120.206L264.19 120.21ZM285.928 138.354C285.928 138.354 285.947 138.354 285.955 138.354C285.955 139.116 285.92 139.882 285.974 140.644C285.994 140.9 286.241 141.14 286.388 141.391C286.586 141.248 286.822 141.136 286.98 140.958C287.909 139.898 287.661 136.709 286.559 135.804C286.477 135.734 285.967 135.959 285.959 136.067C285.905 136.825 285.932 137.591 285.932 138.358L285.928 138.354ZM289.507 117.652C289.507 117.652 289.492 117.652 289.48 117.652C289.48 117.084 289.577 116.488 289.445 115.954C289.364 115.625 288.931 115.385 288.652 115.103C288.404 115.4 288.006 115.667 287.94 116C287.824 116.608 287.735 117.324 287.952 117.869C288.207 118.519 288.791 119.042 289.232 119.618C289.321 119.026 289.414 118.434 289.503 117.842C289.511 117.78 289.503 117.714 289.503 117.652H289.507ZM173.445 146.139C175.507 146.178 175.701 145.945 175.066 144.165C174.989 143.953 174.834 143.763 174.718 143.566C174.544 143.728 174.37 143.891 174.192 144.053C173.716 144.483 173.259 144.932 172.76 145.334C172.454 145.578 172.091 145.748 171.754 145.953C172.126 146.015 172.497 146.089 172.872 146.139C173.062 146.162 173.255 146.143 173.445 146.143V146.139ZM357.914 141.782C358.057 142.033 358.193 142.269 358.328 142.509C358.533 142.293 358.858 142.107 358.916 141.859C359.183 140.741 359.384 139.603 359.582 138.47C359.609 138.311 359.493 138.125 359.442 137.955C359.272 138.106 359.013 138.226 358.951 138.412C358.587 139.503 358.27 140.61 357.914 141.782ZM266.508 122.443C266.442 122.315 266.38 122.013 266.206 121.928C266.043 121.843 265.614 121.92 265.563 122.036C265.227 122.822 264.944 123.631 264.685 124.447C264.658 124.528 264.879 124.687 264.987 124.811C265.447 124.184 265.912 123.557 266.361 122.923C266.43 122.826 266.438 122.687 266.508 122.443ZM100.972 55.3941C100.666 54.7054 100.457 54.2372 100.248 53.769C100.008 54.4732 99.7062 55.1697 99.5592 55.8933C99.5128 56.1332 99.8649 56.4543 100.031 56.7368C100.341 56.2918 100.65 55.8468 100.972 55.3941ZM288.559 121.042C288.37 120.903 288.246 120.81 288.118 120.717C288.06 120.81 287.936 120.918 287.956 120.996C287.987 121.143 288.095 121.27 288.172 121.41C288.284 121.305 288.397 121.201 288.563 121.046L288.559 121.042Z" fill="url(#paint0_linear_457_4768)" fill-opacity="0.32"/>
</g>
<defs>
<linearGradient id="paint0_linear_457_4768" x1="0" y1="76.3683" x2="461.207" y2="76.3683" gradientUnits="userSpaceOnUse">
<stop stop-color="#0C3364"/>
<stop offset="1" stop-color="#019769"/>
</linearGradient>
<clipPath id="clip0_457_4768">
<rect width="461.203" height="152.74" fill="white"/>
</clipPath>
</defs>
</svg>
